<svg fill="#000000" xmlns="http://www.w3.org/2000/svg"  viewBox="0 0 64 64" width="64px" height="64px" baseProfile="basic"><path fill="none" stroke="#000000" stroke-linecap="round" stroke-linejoin="round" stroke-miterlimit="10" stroke-width="2" d="M17.197,19.851l0.782-10.787h28.34l1.149,13.66h9.511c-2.681,3.734-9.191,5.027-9.191,5.027l0,3.335c5.489,0,5.553,7.213,0,7.213	c0,0,0,1.947,0,4.532c0,0.894-6.798,14.883-14.457,14.883c-5.713,0-9.34-3.873-9.415-8.468c-0.064-3.926,2.697-6.851,8.745-5.585	c5.489,1.149,4.979,7.745,1.436,8.415c0.16-3.606-4.213-3.447-4.213,0c-2.968-2.032-2.961-5.962,1.755-8.287	c4.66-2.298,9.191,1.149,9.191,5.17c0,1.436-0.894,8.66-9.798,8.66c-7.755,0-14.777-13.255-14.777-14.979c0,0,0-1.851,0-4.149	c-4.612-0.336-5.234-6.766,0.032-6.766l2.394,0l1.532,5.936h7.851l1.915-4.883h3.447l2.298,4.691h7.42l1.484-8.872	c-13.165,2.362-27.951,0.343-36.543-5.394l33.957,0"/></svg>